<svg width="586" height="482" viewBox="0 0 586 482" fill="none" xmlns="http://www.w3.org/2000/svg">
<g clip-path="url(#clip0_3_1398)">
<rect x="0.482361" y="0.863281" width="585" height="481" rx="24" fill="#34C759"/>
<g clip-path="url(#clip1_3_1398)">
<path d="M-275.537 16.1934C-260.422 6.45636 -243.472 1.12337 -226.552 -4.35564C-205.76 -11.1346 -184.331 -15.7686 -163.295 -21.6507C-150.824 -25.1156 -138.579 -29.5416 -126.494 -34.1496C-117.453 -37.5506 -108.409 -41.9917 -99.6307 -46.2256C-86.6257 -52.2516 -74.2697 -59.5826 -62.7557 -68.1047C-57.2197 -72.3287 -50.7827 -75.3777 -45.0157 -79.2977C-34.7906 -86.1667 -24.7547 -93.3617 -14.6477 -100.436L-13.0377 -101.362C-1.03067 -109.147 11.0943 -116.727 22.9113 -124.839C33.4443 -132.474 44.5093 -139.354 56.0213 -145.425C70.7463 -152.699 85.3763 -160.136 100.961 -165.83C112.82 -170.276 124.904 -174.095 137.163 -177.274C166.336 -185.225 196.818 -187.117 226.705 -182.83C238.509 -180.87 250.117 -177.905 261.401 -173.966C268.689 -171.553 275.089 -167.536 282.247 -165.158C284.86 -164.259 285.794 -161.029 288.046 -160.468C296.443 -158.42 301.027 -150.792 308.4 -147.281C309.295 -146.961 310.072 -146.381 310.63 -145.615C313.471 -141.851 316.911 -138.574 320.817 -135.915C334.603 -122.895 345.748 -107.362 353.65 -90.1546C358.657 -80.0686 362.469 -69.4347 365.01 -58.4657C367.385 -45.7496 368.347 -32.8056 367.876 -19.8686C367.566 1.06537 362.208 21.6414 352.252 40.1294C344.247 55.6194 334.123 69.9373 322.17 82.6733C312.092 93.2933 301.258 103.179 289.754 112.252C284.796 116.144 279.566 119.755 274.212 123.437C260.572 133.264 246.399 142.333 231.756 150.604C222.384 155.998 213.011 161.393 203.823 167.009C193.944 173.241 184.279 179.841 174.899 186.933C169.628 190.949 164.174 194.744 158.838 198.744C143.455 210.431 128.946 223.217 115.428 236.999C98.4833 254.106 82.5863 272.209 67.8263 291.21C57.9873 303.973 48.3303 316.958 38.7093 329.813C24.5403 348.869 8.03232 366.094 -10.4287 381.086C-12.9787 382.991 -15.6407 384.742 -18.4017 386.33C-21.9567 388.405 -25.3507 390.742 -28.5557 393.321C-30.9837 395.397 -33.7117 397.095 -36.6467 398.361C-50.9687 405.701 -65.9727 411.63 -81.4457 416.063C-89.1727 417.835 -96.8647 419.477 -104.694 420.597C-121.37 422.986 -138.252 423.546 -155.035 422.267C-171.377 421.007 -187.586 418.448 -203.507 414.615C-219.223 410.918 -234.426 405.348 -248.787 398.026C-256.307 394.546 -263.387 390.593 -270.701 386.993C-278.932 383.109 -286.946 378.79 -294.71 374.054C-304.705 367.999 -313.923 360.762 -322.165 352.503C-330.229 344.092 -336.376 334.142 -343.538 325.103C-349.366 318.082 -354.003 310.266 -359.666 303.149C-368.264 292.604 -374.581 280.402 -378.223 267.303C-382.229 253.729 -384.78 239.766 -385.833 225.647C-386.263 214.635 -385.9 203.604 -384.746 192.638C-383.51 176.907 -380.84 161.314 -376.769 146.051C-372.225 129.591 -365.316 113.86 -356.253 99.3483C-350.574 90.6183 -345.256 81.5504 -338.796 73.4084C-327.415 58.2354 -314.341 44.3893 -299.828 32.1404C-292.069 26.3304 -283.957 21.0044 -275.537 16.1934Z" fill="#0CB9F1"/>
</g>
<g clip-path="url(#clip2_3_1398)">
<path d="M145.06 674.928C134.631 665.058 127.309 652.937 119.879 640.867C110.712 626.043 103.107 610.323 94.5984 595.142C89.5704 586.137 83.8324 577.489 77.9814 568.999C73.6404 562.639 68.4854 556.472 63.5414 550.472C56.4094 541.537 48.3764 533.35 39.5674 526.039C35.2324 522.548 31.6504 518.138 27.5114 514.411C20.2354 507.786 12.7394 501.371 5.32537 494.877L4.30037 493.804C-4.02263 485.973 -12.2076 478.011 -20.7516 470.389C-28.6846 463.671 -36.1246 456.399 -43.0146 448.628C-51.4426 438.596 -59.9806 428.668 -67.3316 417.672C-73.0126 409.327 -78.2466 400.689 -83.0106 391.795C-94.6506 370.702 -101.79 347.455 -103.981 323.504C-104.638 313.995 -104.47 304.448 -103.481 294.968C-102.944 288.87 -100.987 283.158 -100.454 277.168C-100.235 274.975 -97.8786 273.643 -97.8576 271.794C-97.8136 264.906 -92.6916 259.92 -91.3116 253.549C-91.2266 252.796 -90.9166 252.085 -90.4216 251.508C-88.0006 248.6 -86.0746 245.318 -84.7176 241.793C-77.0826 228.666 -66.9896 217.111 -54.9846 207.751C-48.0176 201.974 -40.3996 197.019 -32.2836 192.986C-22.7686 188.751 -12.8126 185.569 -2.59663 183.497C13.8514 179.793 30.9554 180.067 47.2774 184.295C60.8904 187.575 73.9794 192.718 86.1704 199.576C96.3554 205.379 106.105 211.906 115.344 219.105C119.311 222.212 123.109 225.581 126.986 229.034C137.211 237.745 146.942 247.012 156.135 256.792C162.098 263.034 168.062 269.275 174.164 275.333C180.877 281.808 187.838 288.049 195.132 293.977C199.255 297.302 203.238 300.81 207.36 304.189C219.365 313.9 232.068 322.726 245.368 330.598C261.906 340.498 279.03 349.397 296.647 357.248C308.465 362.463 320.424 367.495 332.274 372.524C349.824 379.907 366.374 389.445 381.538 400.916C383.503 402.532 385.368 404.264 387.123 406.102C389.408 408.464 391.867 410.652 394.482 412.648C396.557 414.138 398.393 415.93 399.929 417.965C408.334 427.672 415.761 438.174 422.104 449.32C424.925 454.97 427.638 460.617 429.969 466.469C434.934 478.932 438.505 491.898 440.619 505.135C442.666 518.027 443.671 531.06 443.625 544.11C443.648 556.977 442.109 569.798 439.042 582.297C437.713 588.776 435.932 595.002 434.471 601.344C432.958 608.449 431.064 615.468 428.797 622.372C425.911 631.253 421.957 639.754 417.02 647.691C411.932 655.519 405.283 662.154 399.535 669.402C395.12 675.237 389.86 680.3 385.34 686.025C378.68 694.67 370.299 701.859 360.719 707.147C350.836 712.805 340.377 717.41 329.518 720.885C320.977 723.292 312.273 725.089 303.473 726.261C290.927 728.266 278.224 729.135 265.518 728.858C251.788 728.44 238.19 726.052 225.145 721.768C217.256 719.015 209.17 716.604 201.596 713.135C187.604 707.181 174.338 699.665 162.053 690.734C156.064 685.82 150.389 680.541 145.06 674.928Z" fill="#AAEAFF"/>
</g>
</g>
<defs>
<clipPath id="clip0_3_1398">
<rect x="0.482361" y="0.863281" width="585" height="481" rx="24" fill="white"/>
</clipPath>
<clipPath id="clip1_3_1398">
<rect width="755" height="609" fill="white" transform="translate(-386.518 -185.137)"/>
</clipPath>
<clipPath id="clip2_3_1398">
<rect width="549" height="549" fill="white" transform="translate(-104.518 180.863)"/>
</clipPath>
</defs>
</svg>
