<svg width="1292" height="494" viewBox="0 0 1292 494" fill="none" xmlns="http://www.w3.org/2000/svg">
<g clip-path="url(#clip0_144_397)">
<rect width="1292" height="494" rx="24" fill="#34C759"/>
<path d="M202.481 494.664L-353.079 818.095C-446.751 872.63 -479.954 995.394 -427.241 1092.3C-374.527 1189.21 -255.858 1223.56 -162.186 1169.02L1058.31 458.48C1257.37 342.596 1327.92 81.7206 1215.9 -124.204L1181.6 -187.278C1088.53 -358.367 879.018 -419.012 713.633 -322.732C627.664 -272.68 566.63 -186.812 546.078 -86.9912L517.614 51.2962C478.96 239.033 364.174 400.529 202.481 494.664Z" fill="#AAEAFF"/>
<path d="M331 723.027L-224.542 1046.48C-318.211 1101.02 -351.414 1223.79 -298.701 1320.69C-245.989 1417.61 -127.324 1451.96 -33.6554 1397.42L1186.8 686.839C1385.85 570.95 1456.41 310.057 1344.4 104.121L1310.08 41.0426C1217.02 -130.057 1007.51 -190.705 842.143 -94.4199C756.165 -44.3643 695.133 41.5083 674.593 141.335L646.119 279.631C607.477 467.379 492.694 628.885 331 723.027Z" fill="#0CB9F1"/>
</g>
<defs>
<clipPath id="clip0_144_397">
<rect width="1292" height="494" rx="24" fill="white"/>
</clipPath>
</defs>
</svg>
